<?xml version="1.0" encoding="iso-8859-1"?>
<!-- Generator: Adobe Illustrator 19.0.0, SVG Export Plug-In . SVG Version: 6.00 Build 0)  -->
<svg version="1.1" id="Layer_1" xmlns="http://www.w3.org/2000/svg" xmlns:xlink="http://www.w3.org/1999/xlink" x="0px" y="0px"
	 viewBox="0 0 512 512" style="enable-background:new 0 0 512 512;" xml:space="preserve">
<path style="fill:#CECECE;" d="M395.669,384.5v120c0,4.142-3.38,7.5-7.55,7.5c-4.17,0-7.55-3.358-7.55-7.5v-120
	c0-4.142,3.38-7.5,7.55-7.5S395.669,380.358,395.669,384.5z"/>
<path style="fill:#FC7F59;" d="M403.219,352l-4.703,37.375c-0.189,1.5-1.464,2.625-2.977,2.625h-14.84
	c-1.512,0-2.788-1.125-2.977-2.625L373.02,352v-16h29.855L403.219,352z"/>
<path style="fill:#CFE2E1;" d="M433.417,82v220c0,5.523-4.477,10-10,10h-10.133v30c0,5.523-4.477,10-10,10h-30.331
	c-5.523,0-10-4.477-10-10v-30H352.82c-5.523,0-10-4.477-10-10V82H433.417z"/>
<path style="fill:#C5D3D2;" d="M433.417,82v220c0,5.523-4.477,10-10,10h-9.75h-0.382v30c0,5.523-4.477,10-10,10h-10.133v-40v-0.382
	c0-11.119,9.014-20.133,20.133-20.133V99.5c0-5.523-4.477-10-10-10H400v-10h30V82H433.417z"/>
<path style="fill:#9EA8A6;" d="M375.537,192c0-4.142,3.38-7.5,7.55-7.5h10.066c4.17,0,7.55,3.358,7.55,7.5s-3.38,7.5-7.55,7.5
	h-10.066C378.917,199.5,375.537,196.142,375.537,192z M393.152,274.5h-10.066c-4.169,0-7.55,3.358-7.55,7.5s3.38,7.5,7.55,7.5
	h10.066c4.17,0,7.55-3.358,7.55-7.5S397.322,274.5,393.152,274.5z M393.152,244.5h-10.066c-4.169,0-7.55,3.358-7.55,7.5
	s3.38,7.5,7.55,7.5h10.066c4.17,0,7.55-3.358,7.55-7.5S397.322,244.5,393.152,244.5z M393.152,214.5h-10.066
	c-4.169,0-7.55,3.358-7.55,7.5s3.38,7.5,7.55,7.5h10.066c4.17,0,7.55-3.358,7.55-7.5S397.322,214.5,393.152,214.5z"/>
<path style="fill:#B4C1BF;" d="M401.486,4.375c1.093,1.603,1.733,3.539,1.733,5.625v142c0,5.523-4.477,10-10,10h-6.106H387h-3.98
	c-5.523,0-10-4.477-10-10V80V60V4.375H401.486z"/>
<path style="fill:#C5D3D2;" d="M446,82c0,4.142-3.38,7.5-7.55,7.5H337.788c-4.169,0-7.55-3.358-7.55-7.5s3.38-7.5,7.55-7.5H438.45
	C442.62,74.5,446,77.858,446,82z M347.854,15h80.53c4.169,0,7.55-3.358,7.55-7.5s-3.38-7.5-7.55-7.5h-80.53
	c-4.169,0-7.55,3.358-7.55,7.5S343.685,15,347.854,15z"/>
<path style="fill:#D5F7F4;" d="M244.981,97.254c1.431,1.777,2.211,3.99,2.211,6.272V200c0,11.046-9.014,20-20.132,20H86.133
	C75.014,220,66,211.046,66,200v-96.474c0-2.282,0.78-4.495,2.211-6.272L106.265,50V30h100.662v20L244.981,97.254z"/>
<g>
	<path style="fill:#B8F4F2;" d="M68.212,97.254L106.265,50V30h100.662v20l38.053,47.254c0.67,0.832,1.191,1.761,1.562,2.746H66.65
		C67.021,99.015,67.542,98.085,68.212,97.254z"/>
	<path style="fill:#B8F4F2;" d="M244.981,97.254c1.431,1.777,2.211,3.99,2.211,6.272V210c0,11.046-9.014,20-20.132,20h-21.139
		c11.119,0,20.132-8.954,20.132-20V100l-40.265-50V30h21.139v20L244.981,97.254z"/>
</g>
<path style="fill:#A7EAE6;" d="M226.053,100l-40.265-50V30h21.139v20l38.053,47.254c0.67,0.832,1.191,1.761,1.562,2.746H226.053z"/>
<path style="fill:#B4C1BF;" d="M217.06,50H96.133c-5.523,0-10-4.477-10-10V10c0-5.523,4.477-10,10-10H217.06c5.523,0,10,4.477,10,10
	v30C227.06,45.523,222.583,50,217.06,50z"/>
<path style="fill:#C5D3D2;" d="M206.927,0c0,11.046-8.954,20-20,20H86.132V10c0-5.523,4.507-10,10.066-10H206.927L206.927,0z"/>
<path style="fill:#FFDEDB;" d="M247.192,492c0,11.046-9.014,20-20.132,20H86.133C75.014,512,66,503.046,66,492V150h35.646
	c6.251,0,12.416,1.446,18.007,4.223l63.526,31.554c5.591,2.777,11.756,4.223,18.007,4.223h46.006V492z"/>
<path style="fill:#FFC08C;" d="M247.192,492c0,11.046-9.014,20-20.132,20H86.133C75.014,512,66,503.046,66,492V150h35.646
	c6.251,0,12.416,1.446,18.007,4.223l63.526,31.554c5.591,2.777,11.756,4.223,18.007,4.223h46.006V492z"/>
<g>
	<path style="fill:#FF9C6F;" d="M247.192,190v302c0,11.046-9.014,20-20.132,20h-1.007V402V268v-78H247.192z"/>
	<path style="fill:#FF9C6F;" d="M211.96,344.286L211.96,344.286c0,30.376-24.787,55-55.364,55l0,0
		c-30.577,0-55.364-24.624-55.364-55l0,0c0-15.277,5.126-30.118,14.567-42.177L156.596,250l40.797,52.108
		C206.834,314.167,211.96,329.009,211.96,344.286z"/>
	<path style="fill:#FF9C6F;" d="M184.278,470c0,4.142-3.38,7.5-7.55,7.5h-40.265c-4.169,0-7.55-3.358-7.55-7.5s3.38-7.5,7.55-7.5
		h40.265C180.898,462.5,184.278,465.858,184.278,470z"/>
</g>
<path style="fill:#F97253;" d="M184.278,340c0,4.142-3.38,7.5-7.55,7.5h-12.583V360c0,4.142-3.38,7.5-7.55,7.5s-7.55-3.358-7.55-7.5
	v-12.5h-12.583c-4.169,0-7.55-3.358-7.55-7.5s3.38-7.5,7.55-7.5h12.583V320c0-4.142,3.38-7.5,7.55-7.5c4.169,0,7.55,3.358,7.55,7.5
	v12.5h12.583C180.898,332.5,184.278,335.858,184.278,340z"/>
<g>
</g>
<g>
</g>
<g>
</g>
<g>
</g>
<g>
</g>
<g>
</g>
<g>
</g>
<g>
</g>
<g>
</g>
<g>
</g>
<g>
</g>
<g>
</g>
<g>
</g>
<g>
</g>
<g>
</g>
</svg>
